<?xml version="1.0" encoding="UTF-8" standalone="no"?>
<!-- Created with Inkscape (http://www.inkscape.org/) -->

<svg
   xmlns:dc="http://purl.org/dc/elements/1.1/"
   xmlns:cc="http://creativecommons.org/ns#"
   xmlns:rdf="http://www.w3.org/1999/02/22-rdf-syntax-ns#"
   xmlns:svg="http://www.w3.org/2000/svg"
   xmlns="http://www.w3.org/2000/svg"
   xmlns:sodipodi="http://sodipodi.sourceforge.net/DTD/sodipodi-0.dtd"
   xmlns:inkscape="http://www.inkscape.org/namespaces/inkscape"
   width="100"
   height="100"
   viewBox="0 0 100 100"
   id="svg2"
   version="1.1"
   inkscape:version="0.48.4 r9939"
   sodipodi:docname="fork.svg">
  <defs
     id="defs4" />
  <sodipodi:namedview
     id="base"
     pagecolor="#ffffff"
     bordercolor="#666666"
     borderopacity="1.0"
     inkscape:pageopacity="0.0"
     inkscape:pageshadow="2"
     inkscape:zoom="3.959798"
     inkscape:cx="18.465822"
     inkscape:cy="32.708991"
     inkscape:document-units="px"
     inkscape:current-layer="layer1"
     showgrid="false"
     inkscape:window-width="1920"
     inkscape:window-height="1147"
     inkscape:window-x="-8"
     inkscape:window-y="-8"
     inkscape:window-maximized="1" />
  <metadata
     id="metadata7">
    <rdf:RDF>
      <cc:Work
         rdf:about="">
        <dc:format>image/svg+xml</dc:format>
        <dc:type
           rdf:resource="http://purl.org/dc/dcmitype/StillImage" />
        <dc:title></dc:title>
      </cc:Work>
    </rdf:RDF>
  </metadata>
  <g
     inkscape:label="Layer 1"
     inkscape:groupmode="layer"
     id="layer1"
     transform="translate(0,-952.36218)">
    <path
       style="fill:#e9b6ac;fill-opacity:1;stroke:none"
       d="M 0,0 100,100 100,60 40,0 z"
       id="path2985"
       inkscape:connector-curvature="0"
       transform="translate(0,952.36218)"
       sodipodi:nodetypes="ccccc" />
    <g
       transform="matrix(0.70710678,0.70710678,-0.70710678,0.70710678,0,0)"
       style="font-size:15.51817894px;font-style:normal;font-variant:normal;font-weight:normal;font-stretch:normal;line-height:125%;letter-spacing:2.29999995px;word-spacing:0px;fill:#ffffff;fill-opacity:1;stroke:none;font-family:Georgia;-inkscape-font-specification:Georgia"
       id="text3755">
      <path
         d="m 708.22475,656.48091 -0.56829,0 c -0.10609,-0.39906 -0.32709,-0.82591 -0.66301,-1.28055 -0.33593,-0.45463 -0.65796,-0.70467 -0.96609,-0.75015 -0.15661,-0.0202 -0.34225,-0.0353 -0.55693,-0.0455 -0.2147,-0.0101 -0.45843,-0.0152 -0.7312,-0.0152 l -1.80339,0 0,4.31903 1.23509,0 c 0.37381,10e-6 0.66427,-0.0391 0.87139,-0.11745 0.2071,-0.0783 0.3839,-0.19826 0.5304,-0.35992 0.10102,-0.11112 0.19321,-0.28414 0.27657,-0.51904 0.0833,-0.23488 0.13765,-0.4862 0.16291,-0.75393 l 0.57587,0 0,4.22052 -0.57587,0 c -0.0152,-0.22226 -0.0669,-0.47484 -0.15533,-0.75773 -0.0884,-0.28287 -0.18313,-0.48746 -0.28415,-0.61375 -0.15155,-0.1869 -0.34224,-0.31445 -0.57208,-0.38265 -0.22985,-0.0682 -0.50642,-0.10229 -0.82971,-0.10229 l -1.23509,0 0,3.70526 c 0,0.1667 0.0328,0.31572 0.0985,0.44706 0.0657,0.13134 0.18185,0.23742 0.34855,0.31824 0.0758,0.0354 0.23994,0.0783 0.49252,0.12882 0.25257,0.0505 0.44453,0.0783 0.57587,0.0833 l 0,0.53798 -4.66,0 0,-0.53798 c 0.15154,-0.0101 0.3536,-0.0265 0.60618,-0.0492 0.25257,-0.0227 0.41675,-0.0518 0.49252,-0.0871 0.15154,-0.0657 0.26141,-0.16291 0.32961,-0.29173 0.0682,-0.12881 0.10229,-0.28414 0.10229,-0.466 l 0,-7.75909 c 0,-0.16669 -0.0278,-0.31444 -0.0834,-0.44326 -0.0556,-0.12881 -0.17175,-0.23363 -0.34855,-0.31446 -0.13639,-0.0657 -0.31951,-0.12375 -0.54935,-0.17428 -0.22984,-0.0505 -0.41296,-0.0808 -0.54935,-0.0909 l 0,-0.53799 8.43346,0 z"
         style=""
         id="path3760" />
      <path
         d="m 719.70058,655.06397 c 0.47483,0.49505 0.84611,1.09239 1.11385,1.79202 0.26772,0.69963 0.40158,1.47377 0.40159,2.32242 -10e-6,0.8537 -0.1364,1.62911 -0.40917,2.32621 -0.27279,0.69711 -0.65165,1.29066 -1.13658,1.78065 -0.4698,0.48494 -1.01536,0.85875 -1.63669,1.12143 -0.62134,0.26268 -1.28308,0.39402 -1.98523,0.39402 -0.74763,0 -1.43842,-0.14018 -2.07238,-0.42054 -0.63396,-0.28036 -1.17826,-0.67058 -1.63289,-1.17068 -0.45464,-0.49 -0.81203,-1.08481 -1.07218,-1.78444 -0.26015,-0.69963 -0.39023,-1.44851 -0.39023,-2.24665 0,-0.8739 0.13639,-1.6531 0.40917,-2.33758 0.27278,-0.68447 0.64912,-1.27675 1.12901,-1.77686 0.47484,-0.49504 1.02671,-0.8739 1.65563,-1.13659 0.6289,-0.26266 1.28686,-0.394 1.97387,-0.39401 0.71225,10e-6 1.3841,0.13387 2.01554,0.40159 0.63143,0.26774 1.17699,0.64408 1.63669,1.12901 z m -1.12901,7.6227 c 0.28287,-0.45969 0.48872,-0.97999 0.61754,-1.56091 0.12881,-0.58092 0.19321,-1.23004 0.19322,-1.94735 -10e-6,-0.73751 -0.072,-1.41441 -0.21595,-2.0307 -0.14398,-0.61628 -0.35488,-1.14163 -0.6327,-1.57607 -0.27784,-0.42936 -0.62639,-0.76402 -1.04566,-1.00398 -0.41928,-0.23994 -0.89917,-0.35991 -1.43967,-0.35992 -0.60619,1e-5 -1.12144,0.13893 -1.54576,0.41675 -0.42433,0.27784 -0.77035,0.64912 -1.03808,1.11385 -0.25258,0.44454 -0.44074,0.96485 -0.5645,1.56091 -0.12377,0.59609 -0.18565,1.22247 -0.18565,1.87916 0,0.72742 0.0657,1.38411 0.19701,1.97008 0.13134,0.58597 0.33845,1.10628 0.62134,1.56091 0.27277,0.44453 0.61627,0.79182 1.0305,1.04187 0.41422,0.25005 0.90926,0.37507 1.48514,0.37507 0.5405,0 1.02797,-0.12628 1.4624,-0.37886 0.43442,-0.25257 0.78803,-0.60618 1.06082,-1.06081 z"
         style=""
         id="path3762" />
      <path
         d="m 734.45651,664.54309 -2.8945,0 c -0.64155,-1.00524 -1.22121,-1.8741 -1.73898,-2.60657 -0.51778,-0.73246 -1.07976,-1.48766 -1.68593,-2.26559 l -1.0987,0 0,3.40975 c -10e-6,0.17681 0.0278,0.33214 0.0833,0.466 0.0556,0.13387 0.17427,0.23616 0.35613,0.30688 0.0909,0.0354 0.25004,0.0682 0.47736,0.0985 0.22731,0.0303 0.41927,0.048 0.57587,0.053 l 0,0.53798 -4.54634,0 0,-0.53798 c 0.12123,-0.0101 0.29677,-0.0278 0.52662,-0.053 0.22984,-0.0253 0.39022,-0.0581 0.48115,-0.0985 0.15155,-0.0657 0.26141,-0.16164 0.32961,-0.28793 0.0682,-0.12629 0.10229,-0.28794 0.10229,-0.48495 l 0,-7.77424 c 0,-0.17679 -0.0253,-0.33339 -0.0758,-0.46979 -0.0505,-0.13638 -0.16922,-0.23993 -0.35613,-0.31066 -0.12629,-0.0455 -0.29046,-0.0871 -0.49252,-0.12503 -0.20206,-0.0379 -0.37381,-0.0619 -0.51525,-0.072 l 0,-0.53799 4.96309,0 c 0.45463,1e-5 0.88148,0.0467 1.28055,0.14018 0.39906,0.0935 0.76024,0.24375 1.08355,0.45085 0.31318,0.20207 0.56323,0.46601 0.75014,0.79182 0.1869,0.32583 0.28035,0.71858 0.28036,1.17826 -10e-6,0.41423 -0.0631,0.78046 -0.18943,1.0987 -0.1263,0.31825 -0.3132,0.59355 -0.56072,0.82592 -0.22732,0.21722 -0.5001,0.40538 -0.81834,0.5645 -0.31825,0.15913 -0.66933,0.29426 -1.05323,0.40538 0.5304,0.70216 0.97114,1.29319 1.32223,1.77308 0.35107,0.47989 0.7817,1.06334 1.29191,1.75034 0.22226,0.30309 0.42306,0.52662 0.60239,0.67058 0.17932,0.14397 0.35739,0.26142 0.5342,0.35234 0.13133,0.0657 0.2955,0.11619 0.49252,0.15155 0.197,0.0354 0.36117,0.0556 0.49252,0.0606 z m -3.98563,-8.01671 c 0,-0.65164 -0.18691,-1.16815 -0.56071,-1.54955 -0.37382,-0.38138 -0.9017,-0.57207 -1.58364,-0.57208 l -1.28813,0 0,4.61454 0.99261,0 c 0.6971,0 1.27802,-0.22353 1.74277,-0.67059 0.46473,-0.44705 0.6971,-1.05449 0.6971,-1.82232 z"
         style=""
         id="path3764" />
      <path
         d="m 747.60954,664.54309 -3.01574,0 c -0.58093,-0.89916 -1.22626,-1.79201 -1.93599,-2.67855 -0.70974,-0.88654 -1.45357,-1.74655 -2.23149,-2.58005 l -0.19701,0 0,3.74315 c -1e-5,0.1667 0.0316,0.31572 0.0947,0.44706 0.0631,0.13134 0.17806,0.23742 0.34477,0.31824 0.0808,0.0354 0.2311,0.0783 0.45084,0.12882 0.21974,0.0505 0.40285,0.0783 0.54935,0.0833 l 0,0.53798 -4.46299,0 0,-0.53798 c 0.11618,-0.0101 0.28541,-0.0253 0.50768,-0.0455 0.22226,-0.0202 0.37886,-0.0505 0.46978,-0.0909 0.15155,-0.0657 0.26142,-0.16291 0.32961,-0.29173 0.0682,-0.12881 0.10229,-0.28414 0.1023,-0.466 l 0,-7.75909 c -10e-6,-0.17174 -0.029,-0.32076 -0.0871,-0.44705 -0.0581,-0.12628 -0.17302,-0.22984 -0.34477,-0.31067 -0.13639,-0.0657 -0.29803,-0.12375 -0.48494,-0.17428 -0.1869,-0.0505 -0.35108,-0.0808 -0.49252,-0.0909 l 0,-0.53799 4.46299,0 0,0.53799 c -0.14144,0.005 -0.31825,0.0278 -0.5304,0.0682 -0.21217,0.0404 -0.36877,0.0783 -0.46979,0.11366 -0.17176,0.0606 -0.28794,0.16166 -0.34855,0.30309 -0.0606,0.14145 -0.0909,0.29552 -0.0909,0.46221 l 0,3.71285 0.15154,0 c 0.45463,-0.38391 0.90169,-0.78424 1.34117,-1.20099 0.43948,-0.41675 0.83854,-0.83223 1.19721,-1.24646 0.39906,-0.45968 0.69078,-0.82717 0.87517,-1.10249 0.18437,-0.27529 0.27656,-0.51903 0.27657,-0.7312 -10e-6,-0.0758 -0.0467,-0.13764 -0.14018,-0.18564 -0.0935,-0.048 -0.20081,-0.0871 -0.32203,-0.11745 -0.14145,-0.0303 -0.26774,-0.0492 -0.37887,-0.0568 -0.11114,-0.008 -0.20206,-0.0139 -0.27278,-0.0189 l 0,-0.53799 4.03109,0 0,0.53799 c -0.0152,10e-6 -0.048,0.003 -0.0985,0.008 -0.0505,0.005 -0.10862,0.0101 -0.17428,0.0152 -0.0707,0.005 -0.14145,0.0152 -0.21216,0.0303 -0.0707,0.0152 -0.16166,0.0328 -0.27278,0.053 -0.17681,0.0404 -0.35993,0.10483 -0.54935,0.19322 -0.18944,0.0884 -0.34477,0.19828 -0.466,0.32961 -0.52031,0.59103 -1.06335,1.20226 -1.62911,1.83369 -0.56577,0.63144 -1.12648,1.20731 -1.68214,1.72761 0.76782,0.86886 1.40304,1.61648 1.90567,2.24286 0.50262,0.62639 1.03681,1.29571 1.60259,2.00797 0.2172,0.27278 0.43442,0.49126 0.65164,0.65543 0.2172,0.16417 0.40411,0.28667 0.56072,0.36749 0.13132,0.0657 0.2955,0.11619 0.49252,0.15155 0.19699,0.0354 0.36117,0.0556 0.49252,0.0606 z"
         style=""
         id="path3766" />
      <path
         d="m 769.26589,664.54309 -4.75092,0 0,-0.53798 c 0.17174,-0.005 0.39274,-0.0227 0.663,-0.053 0.27025,-0.0303 0.45589,-0.0733 0.55693,-0.12882 0.15659,-0.096 0.27151,-0.20584 0.34477,-0.32961 0.0732,-0.12376 0.10986,-0.27909 0.10987,-0.466 l 0,-7.8197 -0.11366,0 -3.66738,9.16087 -0.37887,0 -3.4931,-9.3503 -0.0985,0 0,6.41791 c 0,0.62134 0.0391,1.09365 0.11745,1.41695 0.0783,0.32329 0.19827,0.55566 0.35992,0.6971 0.11113,0.10609 0.34097,0.20711 0.68953,0.30309 0.34855,0.096 0.57586,0.1465 0.68195,0.15155 l 0,0.53798 -4.34176,0 0,-0.53798 c 0.22732,-0.0202 0.466,-0.0581 0.71605,-0.11366 0.25005,-0.0556 0.44327,-0.13892 0.57966,-0.25005 0.1768,-0.14144 0.29804,-0.35865 0.36371,-0.65164 0.0657,-0.29299 0.0985,-0.78298 0.0985,-1.46999 l 0,-5.50107 c 0,-0.31823 -0.0379,-0.57839 -0.11366,-0.78045 -0.0758,-0.20205 -0.18438,-0.36623 -0.32582,-0.49253 -0.1566,-0.13638 -0.34855,-0.23741 -0.57587,-0.30308 -0.22732,-0.0657 -0.45211,-0.10355 -0.67437,-0.11366 l 0,-0.53799 3.66738,0 3.07636,8.06218 2.6293,-6.74374 c 0.096,-0.24751 0.17805,-0.5064 0.24626,-0.77666 0.0682,-0.27025 0.10481,-0.45084 0.10987,-0.54178 l 3.50826,0 0,0.53799 c -0.14146,0.005 -0.32205,0.0278 -0.54177,0.0682 -0.21976,0.0404 -0.38014,0.0783 -0.48116,0.11366 -0.17176,0.0606 -0.28795,0.16166 -0.34855,0.30309 -0.0606,0.14145 -0.0909,0.29552 -0.0909,0.46221 l 0,7.75151 c -10e-6,0.17681 0.0303,0.32583 0.0909,0.44706 0.0606,0.12124 0.17679,0.22732 0.34855,0.31824 0.0909,0.0505 0.25256,0.0972 0.48495,0.14018 0.23235,0.0429 0.41673,0.0669 0.55313,0.072 z"
         style=""
         id="path3768" />
      <path
         d="m 782.06036,661.37581 -0.20458,3.16728 -8.92599,0 0,-0.53798 c 0.15155,-0.0101 0.35361,-0.0316 0.60618,-0.0644 0.25258,-0.0328 0.41675,-0.0669 0.49252,-0.10229 0.16165,-0.0758 0.27405,-0.17428 0.33719,-0.29551 0.0631,-0.12124 0.0947,-0.27531 0.0947,-0.46222 l 0,-7.72878 c -1e-5,-0.16669 -0.0278,-0.31444 -0.0833,-0.44326 -0.0556,-0.12881 -0.17176,-0.23363 -0.34856,-0.31446 -0.13639,-0.0657 -0.3195,-0.12375 -0.54935,-0.17428 -0.22984,-0.0505 -0.41296,-0.0808 -0.54935,-0.0909 l 0,-0.53799 8.31981,0 0,2.59142 -0.56829,0 c -0.10104,-0.38391 -0.31952,-0.79181 -0.65543,-1.22373 -0.33594,-0.43189 -0.65544,-0.66805 -0.95852,-0.70847 -0.15661,-0.0202 -0.34351,-0.0353 -0.56072,-0.0455 -0.21722,-0.0101 -0.46474,-0.0152 -0.74257,-0.0152 l -1.68972,0 0,4.27357 1.21236,0 c 0.38895,0 0.6731,-0.0366 0.85243,-0.10987 0.17933,-0.0732 0.33719,-0.19574 0.47358,-0.3675 0.11113,-0.14649 0.20584,-0.34223 0.28415,-0.58724 0.0783,-0.24499 0.13007,-0.47609 0.15533,-0.69331 l 0.56829,0 0,4.20536 -0.56829,0 c -0.0202,-0.24246 -0.0745,-0.49883 -0.16291,-0.76909 -0.0884,-0.27025 -0.1806,-0.46599 -0.27657,-0.58723 -0.1566,-0.19701 -0.33467,-0.32582 -0.53419,-0.38644 -0.19954,-0.0606 -0.46348,-0.0909 -0.79182,-0.0909 l -1.21236,0 0,3.2279 c -10e-6,0.3233 0.0227,0.5784 0.0682,0.76531 0.0455,0.1869 0.13386,0.32834 0.26521,0.42432 0.13133,0.096 0.31066,0.15786 0.53798,0.18564 0.22731,0.0278 0.55061,0.0417 0.96989,0.0417 0.16669,0 0.38643,0 0.65922,0 0.27277,0 0.50261,-0.0101 0.68952,-0.0303 0.19195,-0.0202 0.39022,-0.0568 0.59482,-0.10987 0.20457,-0.053 0.3498,-0.12502 0.43569,-0.21595 0.23236,-0.24247 0.47609,-0.60997 0.7312,-1.10249 0.25509,-0.49252 0.418,-0.85496 0.48873,-1.08733 z"
         style=""
         id="path3770" />
      <path
         d="m 788.30811,654.53356 c -1e-5,0.25259 -0.0834,1.10124 -0.25005,2.54595 -0.1667,1.44474 -0.3132,2.84147 -0.43948,4.19021 l -0.59103,0 c -0.11113,-1.34874 -0.24878,-2.74547 -0.41296,-4.19021 -0.16417,-1.44471 -0.24626,-2.29336 -0.24626,-2.54595 0,-0.28792 0.0909,-0.53039 0.27278,-0.72741 0.18186,-0.197 0.41422,-0.2955 0.69711,-0.29551 0.28288,1e-5 0.51525,0.0973 0.69711,0.29172 0.18185,0.19449 0.27277,0.43823 0.27278,0.7312 z m 0.0682,9.13815 c 0,0.28288 -0.10229,0.52409 -0.30688,0.72362 -0.20458,0.19954 -0.44832,0.29931 -0.7312,0.29931 -0.28289,0 -0.52662,-0.0998 -0.7312,-0.29931 -0.20459,-0.19953 -0.30688,-0.44074 -0.30688,-0.72362 0,-0.28288 0.10229,-0.52662 0.30688,-0.7312 0.20458,-0.20459 0.44831,-0.30688 0.7312,-0.30688 0.28288,0 0.52662,0.10229 0.7312,0.30688 0.20459,0.20458 0.30688,0.44832 0.30688,0.7312 z"
         style=""
         id="path3772" />
    </g>
  </g>
</svg>
