<?xml version="1.0" encoding="UTF-8" standalone="no"?>
<!-- Created with Inkscape (http://www.inkscape.org/) -->

<svg
   xmlns:dc="http://purl.org/dc/elements/1.1/"
   xmlns:cc="http://creativecommons.org/ns#"
   xmlns:rdf="http://www.w3.org/1999/02/22-rdf-syntax-ns#"
   xmlns:svg="http://www.w3.org/2000/svg"
   xmlns="http://www.w3.org/2000/svg"
   xmlns:sodipodi="http://sodipodi.sourceforge.net/DTD/sodipodi-0.dtd"
   xmlns:inkscape="http://www.inkscape.org/namespaces/inkscape"
   width="200"
   height="200"
   viewBox="0 0 200 200"
   id="svg2"
   version="1.1"
   inkscape:version="0.48.4 r9939"
   sodipodi:docname="json_pig.svg">
  <defs
     id="defs4" />
  <sodipodi:namedview
     id="base"
     pagecolor="#ffffff"
     bordercolor="#666666"
     borderopacity="1.0"
     inkscape:pageopacity="0.0"
     inkscape:pageshadow="2"
     inkscape:zoom="2.8"
     inkscape:cx="68.402146"
     inkscape:cy="63.900831"
     inkscape:document-units="px"
     inkscape:current-layer="layer1"
     showgrid="false"
     inkscape:window-width="1600"
     inkscape:window-height="848"
     inkscape:window-x="0"
     inkscape:window-y="27"
     inkscape:window-maximized="1" />
  <metadata
     id="metadata7">
    <rdf:RDF>
      <cc:Work
         rdf:about="">
        <dc:format>image/svg+xml</dc:format>
        <dc:type
           rdf:resource="http://purl.org/dc/dcmitype/StillImage" />
      </cc:Work>
    </rdf:RDF>
  </metadata>
  <g
     inkscape:label="Layer 1"
     inkscape:groupmode="layer"
     id="layer1"
     transform="translate(0,-852.36218)">
    <path
       inkscape:connector-curvature="0"
       d="m 172.25863,1001.5866 c 0,0 27.74137,-18.9775 27.74137,-56.4075 0,-55.71598 -59.0483,-76.31791 -90.79676,-75.76808 -31.756791,0.55816 -41.220514,8.9139 -41.220514,8.9139 0,0 -10.804973,-7.85589 -22.259744,-14.43718 -8.763941,-3.4156 -10.796642,-3.90712 -16.886415,-1.94939 -4.873484,0 -1.807771,8.11414 0.149954,11.03823 1.941063,2.92409 11.379794,19.0774 11.379794,19.0774 0,0 -19.810505,20.40202 -21.276716,33.81452 0,-0.2416 -9.3304307,-0.075 -14.4455067,-0.075 -5.11507599,0 -4.63189299,5.5733 -4.63189299,5.5733 l 0.141623,39.2711 c 0,0 -0.316568,5.5732 4.32365499,5.5732 4.631893,0 14.4788297,0.1083 14.4788297,0.1083 0,0 13.854025,20.1188 22.634627,23.776 0,0.2415 -7.589306,20.8519 -7.589306,20.8519 0,0 -3.657196,6.3396 2.92409,8.7806 6.581287,2.4325 23.750947,9.6386 31.065339,11.8379 7.306061,2.191 8.355734,-2.7824 8.355734,-2.7824 l 7.239415,-15.6369 47.360274,0.075 7.23941,16.12 c 0,0 1.39124,7.481 11.1382,3.3406 9.7553,-4.1404 20.40199,-9.0555 28.44949,-13.1959 8.03916,-4.1403 2.74914,-11.8796 2.74914,-11.8796 z"
       id="path3115"
       sodipodi:nodetypes="cscccccccsccsccccccccccccc"
       style="fill:#e9b6ac;fill-opacity:1" />
    <path
       inkscape:connector-curvature="0"
       id="path4048"
       style="font-size:72px;font-style:normal;font-variant:normal;font-weight:normal;font-stretch:normal;line-height:125%;letter-spacing:10.02999973px;word-spacing:0px;fill:#ffffff;fill-opacity:1;stroke:none;font-family:Segoe UI;-inkscape-font-specification:Segoe UI"
       d="m 60.733376,982.51575 c -7.195325,-0.0938 -10.792978,-3.72657 -10.792969,-10.89844 l 0,-10.54688 c -9e-6,-4.73436 -1.828132,-7.21873 -5.484375,-7.45312 l 0,-4.07813 c 3.656243,-0.23435 5.484366,-2.7656 5.484375,-7.59375 l 0,-10.26562 c -9e-6,-7.26558 3.597644,-10.94526 10.792969,-11.03906 l 0,4.5 c -3.726579,0.0938 -5.589858,2.4141 -5.589844,6.96093 l 0,10.30079 c -1.4e-5,4.92189 -1.757825,7.94533 -5.273438,9.07031 l 0,0.14062 c 3.515613,1.05471 5.273424,4.05471 5.273438,9 l 0,10.16016 c -1.4e-5,2.60156 0.410142,4.45312 1.230469,5.55469 0.843734,1.12499 2.296857,1.71093 4.359375,1.75781 l 0,4.42969" />
    <path
       inkscape:connector-curvature="0"
       id="path4050"
       style="font-size:72px;font-style:normal;font-variant:normal;font-weight:normal;font-stretch:normal;line-height:125%;letter-spacing:10.02999973px;word-spacing:0px;fill:#ffffff;fill-opacity:1;stroke:none;font-family:Segoe UI;-inkscape-font-specification:Segoe UI"
       d="m 80.888374,955.82825 c -1.078131,0 -2.003912,-0.38672 -2.777343,-1.16016 -0.750005,-0.77344 -1.125004,-1.69922 -1.125,-2.77734 -4e-6,-1.07812 0.374995,-2.0039 1.125,-2.77735 0.773431,-0.79686 1.699212,-1.1953 2.777343,-1.19531 1.101554,10e-6 2.039053,0.39845 2.8125,1.19531 0.773426,0.77345 1.160145,1.69923 1.160157,2.77735 -1.2e-5,1.07812 -0.386731,2.0039 -1.160157,2.77734 -0.773447,0.77344 -1.710946,1.16016 -2.8125,1.16016" />
    <path
       inkscape:connector-curvature="0"
       id="path4052"
       style="font-size:72px;font-style:normal;font-variant:normal;font-weight:normal;font-stretch:normal;line-height:125%;letter-spacing:10.02999973px;word-spacing:0px;fill:#ffffff;fill-opacity:1;stroke:none;font-family:Segoe UI;-inkscape-font-specification:Segoe UI"
       d="m 106.52775,955.82825 c -1.07813,0 -2.00391,-0.38672 -2.77735,-1.16016 -0.75,-0.77344 -1.125,-1.69922 -1.125,-2.77734 0,-1.07812 0.375,-2.0039 1.125,-2.77735 0.77344,-0.79686 1.69922,-1.1953 2.77735,-1.19531 1.10155,10e-6 2.03905,0.39845 2.8125,1.19531 0.77342,0.77345 1.16014,1.69923 1.16015,2.77735 -1e-5,1.07812 -0.38673,2.0039 -1.16015,2.77734 -0.77345,0.77344 -1.71095,1.16016 -2.8125,1.16016" />
    <path
       inkscape:connector-curvature="0"
       id="path4054"
       style="font-size:72px;font-style:normal;font-variant:normal;font-weight:normal;font-stretch:normal;line-height:125%;letter-spacing:10.02999973px;word-spacing:0px;fill:#ffffff;fill-opacity:1;stroke:none;font-family:Segoe UI;-inkscape-font-specification:Segoe UI"
       d="m 132.16712,955.82825 c -1.07813,0 -2.00391,-0.38672 -2.77734,-1.16016 -0.75001,-0.77344 -1.12501,-1.69922 -1.125,-2.77734 -1e-5,-1.07812 0.37499,-2.0039 1.125,-2.77735 0.77343,-0.79686 1.69921,-1.1953 2.77734,-1.19531 1.10156,10e-6 2.03905,0.39845 2.8125,1.19531 0.77343,0.77345 1.16015,1.69923 1.16016,2.77735 -1e-5,1.07812 -0.38673,2.0039 -1.16016,2.77734 -0.77345,0.77344 -1.71094,1.16016 -2.8125,1.16016" />
    <path
       inkscape:connector-curvature="0"
       id="path4056"
       style="font-size:72px;font-style:normal;font-variant:normal;font-weight:normal;font-stretch:normal;line-height:125%;letter-spacing:10.02999973px;word-spacing:0px;fill:#ffffff;fill-opacity:1;stroke:none;font-family:Segoe UI;-inkscape-font-specification:Segoe UI"
       d="m 168.52915,953.61731 c -3.65626,0.23439 -5.48439,2.71876 -5.48437,7.45312 l 0,10.54688 c -2e-5,7.17187 -3.58595,10.80468 -10.75782,10.89844 l 0,-4.42969 c 2.03906,-0.0469 3.48047,-0.63282 4.32422,-1.75781 0.86718,-1.12501 1.30078,-2.97657 1.30078,-5.55469 l 0,-10.16016 c 0,-4.94529 1.74609,-7.94529 5.23829,-9 l 0,-0.14062 c -3.4922,-1.12498 -5.23829,-4.14842 -5.23829,-9.07031 l 0,-10.30079 c 0,-4.54683 -1.875,-6.86714 -5.625,-6.96093 l 0,-4.5 c 7.17187,0.0938 10.7578,3.77348 10.75782,11.03906 l 0,10.26562 c -2e-5,4.82815 1.82811,7.3594 5.48437,7.59375 l 0,4.07813" />
  </g>
</svg>
